<?xml version="1.0" encoding="UTF-8" standalone="no"?>
<svg
   xmlns:dc="http://purl.org/dc/elements/1.1/"
   xmlns:cc="http://creativecommons.org/ns#"
   xmlns:rdf="http://www.w3.org/1999/02/22-rdf-syntax-ns#"
   xmlns:svg="http://www.w3.org/2000/svg"
   xmlns="http://www.w3.org/2000/svg"
   xmlns:sodipodi="http://sodipodi.sourceforge.net/DTD/sodipodi-0.dtd"
   xmlns:inkscape="http://www.inkscape.org/namespaces/inkscape"
   viewBox="0 0 512 512"
   version="1.1"
   id="svg4"
   sodipodi:docname="unknown.svg"
   inkscape:version="0.92.3 (unknown)">
  <title
     id="title819">fa-question-circle</title>
  <metadata
     id="metadata10">
    <rdf:RDF>
      <cc:Work
         rdf:about="">
        <dc:format>image/svg+xml</dc:format>
        <dc:type
           rdf:resource="http://purl.org/dc/dcmitype/StillImage" />
        <dc:title>fa-question-circle</dc:title>
        <dc:creator>
          <cc:Agent>
            <dc:title>FontAwesome 5 Free</dc:title>
          </cc:Agent>
        </dc:creator>
        <dc:rights>
          <cc:Agent>
            <dc:title>CC-BY-4.0</dc:title>
          </cc:Agent>
        </dc:rights>
      </cc:Work>
    </rdf:RDF>
  </metadata>
  <defs
     id="defs8" />
  <sodipodi:namedview
     pagecolor="#ffffff"
     bordercolor="#666666"
     borderopacity="1"
     objecttolerance="10"
     gridtolerance="10"
     guidetolerance="10"
     inkscape:pageopacity="0"
     inkscape:pageshadow="2"
     inkscape:window-width="640"
     inkscape:window-height="480"
     id="namedview6"
     showgrid="false"
     inkscape:zoom="0.52148438"
     inkscape:cx="267.50562"
     inkscape:cy="315.44569"
     inkscape:current-layer="svg4" />
  <path
     d="M 456,256 C 456,366.48145 366.44919,456 256,456 145.55081,456 56,366.48145 56,256 56,145.58306 145.55081,56 256,56 366.44919,56 456,145.58306 456,256 Z M 261.36694,122.12903 c -43.9492,0 -71.97984,18.51371 -93.99113,51.41775 -2.85162,4.2629 -1.89759,10.01209 2.18951,13.11128 l 27.98306,21.21775 c 4.19759,3.18306 10.17824,2.42581 13.43952,-1.71129 14.40645,-18.27258 24.28468,-28.86855 46.2121,-28.86855 16.475,0 36.85322,10.60322 36.85322,26.57903 0,12.07742 -9.97016,18.27984 -26.23709,27.4 -18.97097,10.63468 -44.07419,23.87097 -44.07419,56.98306 v 3.22581 c 0,5.34435 4.33306,9.67742 9.67741,9.67742 h 45.1613 c 5.34435,0 9.67741,-4.33307 9.67741,-9.67742 v -1.075 c 0,-22.95322 67.08549,-23.90887 67.08549,-86.02177 0,-46.77581 -48.52017,-82.25807 -93.97661,-82.25807 z m -5.36694,200 c -20.45565,0 -37.09678,16.64113 -37.09678,37.09678 0,20.45484 16.64113,37.09677 37.09678,37.09677 20.45565,0 37.09678,-16.64193 37.09678,-37.09677 0,-20.45565 -16.64113,-37.09678 -37.09678,-37.09678 z"
     id="path2"
     style="fill:#ececec;stroke-width:0.80645162"
     inkscape:connector-curvature="0" />
</svg>
